<svg xmlns="http://www.w3.org/2000/svg" viewBox="0 0 800 500" width="800" height="500">
  <defs>
    <linearGradient id="partsBg" x1="0%" y1="0%" x2="0%" y2="100%">
      <stop offset="0%" style="stop-color:#0f172a"/>
      <stop offset="100%" style="stop-color:#1e293b"/>
    </linearGradient>
    <linearGradient id="cardGrad" x1="0%" y1="0%" x2="0%" y2="100%">
      <stop offset="0%" style="stop-color:#f8fafc"/>
      <stop offset="100%" style="stop-color:#e2e8f0"/>
    </linearGradient>
    <filter id="shadowPt">
      <feDropShadow dx="0" dy="3" stdDeviation="5" flood-color="#000" flood-opacity="0.2"/>
    </filter>
  </defs>
  <rect width="800" height="500" fill="url(#partsBg)"/>
  <!-- Header -->
  <text x="400" y="45" text-anchor="middle" font-family="system-ui,sans-serif" font-weight="800" font-size="18" fill="#3b82f6">KUBOTA V1505 — COMMON PARTS WE SOURCE</text>
  <line x1="200" y1="55" x2="600" y2="55" stroke="#3b82f6" stroke-width="2" opacity="0.3"/>
  <!-- Parts catalog grid — 3 columns -->
  <!-- Row 1 -->
  <!-- Part 1: Overhaul Kit -->
  <g transform="translate(30, 80)" filter="url(#shadowPt)">
    <rect width="230" height="90" rx="8" fill="url(#cardGrad)"/>
    <rect x="12" y="12" width="48" height="48" rx="6" fill="#2563eb" opacity="0.1"/>
    <!-- Piston icon -->
    <rect x="22" y="25" width="14" height="22" rx="2" fill="#3b82f6" opacity="0.5"/>
    <rect x="20" y="22" width="18" height="6" rx="1" fill="#60a5fa" opacity="0.6"/>
    <rect x="22" y="40" width="6" height="2" fill="#93c5fd" opacity="0.4"/>
    <rect x="22" y="44" width="6" height="2" fill="#93c5fd" opacity="0.4"/>
    <rect x="30" y="40" width="6" height="2" fill="#93c5fd" opacity="0.4"/>
    <rect x="30" y="44" width="6" height="2" fill="#93c5fd" opacity="0.4"/>
    <text x="75" y="30" font-family="system-ui,sans-serif" font-weight="700" font-size="13" fill="#1e293b">Overhaul / Rebuild Kit</text>
    <text x="75" y="48" font-family="system-ui,sans-serif" font-size="10" fill="#64748b">Pistons · Rings · Liners · Gasket Set</text>
    <rect x="12" y="62" width="50" height="18" rx="9" fill="#22c55e" opacity="0.15"/>
    <text x="37" y="75" text-anchor="middle" font-family="system-ui,sans-serif" font-size="9" fill="#22c55e" font-weight="700">OEM + AFTERMARKET</text>
  </g>
  <!-- Part 2: Cylinder Head -->
  <g transform="translate(285, 80)" filter="url(#shadowPt)">
    <rect width="230" height="90" rx="8" fill="url(#cardGrad)"/>
    <rect x="12" y="12" width="48" height="48" rx="6" fill="#2563eb" opacity="0.1"/>
    <rect x="18" y="20" width="36" height="32" rx="3" fill="none" stroke="#3b82f6" stroke-width="2" opacity="0.5"/>
    <rect x="22" y="24" width="10" height="8" rx="1" fill="#3b82f6" opacity="0.3"/>
    <rect x="38" y="24" width="10" height="8" rx="1" fill="#3b82f6" opacity="0.3"/>
    <rect x="22" y="36" width="10" height="8" rx="1" fill="#3b82f6" opacity="0.3"/>
    <rect x="38" y="36" width="10" height="8" rx="1" fill="#3b82f6" opacity="0.3"/>
    <text x="75" y="30" font-family="system-ui,sans-serif" font-weight="700" font-size="13" fill="#1e293b">Cylinder Head (bare)</text>
    <text x="75" y="48" font-family="system-ui,sans-serif" font-size="10" fill="#64748b">New or reconditioned available</text>
    <rect x="12" y="62" width="60" height="18" rx="9" fill="#f59e0b" opacity="0.15"/>
    <text x="42" y="75" text-anchor="middle" font-family="system-ui,sans-serif" font-size="9" fill="#f59e0b" font-weight="700">RECONDITIONED</text>
  </g>
  <!-- Part 3: Injectors -->
  <g transform="translate(540, 80)" filter="url(#shadowPt)">
    <rect width="230" height="90" rx="8" fill="url(#cardGrad)"/>
    <rect x="12" y="12" width="48" height="48" rx="6" fill="#2563eb" opacity="0.1"/>
    <rect x="28" y="22" width="8" height="28" rx="2" fill="#3b82f6" opacity="0.5"/>
    <rect x="24" y="18" width="16" height="8" rx="2" fill="#60a5fa" opacity="0.4"/>
    <rect x="38" y="22" width="8" height="28" rx="2" fill="#3b82f6" opacity="0.5"/>
    <rect x="34" y="18" width="16" height="8" rx="2" fill="#60a5fa" opacity="0.4"/>
    <text x="75" y="30" font-family="system-ui,sans-serif" font-weight="700" font-size="13" fill="#1e293b">Injector Nozzles (set of 4)</text>
    <text x="75" y="48" font-family="system-ui,sans-serif" font-size="10" fill="#64748b">OEM Denso · Bosch-compatible</text>
    <rect x="12" y="62" width="35" height="18" rx="9" fill="#2563eb" opacity="0.15"/>
    <text x="29" y="75" text-anchor="middle" font-family="system-ui,sans-serif" font-size="9" fill="#2563eb" font-weight="700">OEM</text>
  </g>
  <!-- Row 2 -->
  <!-- Part 4: Water Pump -->
  <g transform="translate(30, 190)" filter="url(#shadowPt)">
    <rect width="230" height="90" rx="8" fill="url(#cardGrad)"/>
    <rect x="12" y="12" width="48" height="48" rx="6" fill="#2563eb" opacity="0.1"/>
    <circle cx="36" cy="36" r="16" fill="none" stroke="#3b82f6" stroke-width="2" opacity="0.5"/>
    <circle cx="36" cy="36" r="6" fill="#3b82f6" opacity="0.4"/>
    <path d="M44,28 L52,20" stroke="#60a5fa" stroke-width="2" stroke-linecap="round" opacity="0.5"/>
    <text x="75" y="30" font-family="system-ui,sans-serif" font-weight="700" font-size="13" fill="#1e293b">Water Pump</text>
    <text x="75" y="48" font-family="system-ui,sans-serif" font-size="10" fill="#64748b">With or without housing</text>
    <rect x="12" y="62" width="50" height="18" rx="9" fill="#22c55e" opacity="0.15"/>
    <text x="37" y="75" text-anchor="middle" font-family="system-ui,sans-serif" font-size="9" fill="#22c55e" font-weight="700">OEM + AFTERMARKET</text>
  </g>
  <!-- Part 5: Oil Pump -->
  <g transform="translate(285, 190)" filter="url(#shadowPt)">
    <rect width="230" height="90" rx="8" fill="url(#cardGrad)"/>
    <rect x="12" y="12" width="48" height="48" rx="6" fill="#2563eb" opacity="0.1"/>
    <circle cx="36" cy="36" r="14" fill="none" stroke="#3b82f6" stroke-width="3" opacity="0.4"/>
    <circle cx="36" cy="36" r="5" fill="#3b82f6" opacity="0.5"/>
    <g stroke="#60a5fa" stroke-width="1.5" opacity="0.4">
      <line x1="36" y1="18" x2="36" y2="14"/>
      <line x1="36" y1="54" x2="36" y2="58"/>
      <line x1="18" y1="36" x2="14" y2="36"/>
      <line x1="54" y1="36" x2="58" y2="36"/>
    </g>
    <text x="75" y="30" font-family="system-ui,sans-serif" font-weight="700" font-size="13" fill="#1e293b">Oil Pump</text>
    <text x="75" y="48" font-family="system-ui,sans-serif" font-size="10" fill="#64748b">Complete unit or repair kit</text>
    <rect x="12" y="62" width="60" height="18" rx="9" fill="#f59e0b" opacity="0.15"/>
    <text x="42" y="75" text-anchor="middle" font-family="system-ui,sans-serif" font-size="9" fill="#f59e0b" font-weight="700">REPAIR KIT</text>
  </g>
  <!-- Part 6: Timing Gear -->
  <g transform="translate(540, 190)" filter="url(#shadowPt)">
    <rect width="230" height="90" rx="8" fill="url(#cardGrad)"/>
    <rect x="12" y="12" width="48" height="48" rx="6" fill="#2563eb" opacity="0.1"/>
    <circle cx="36" cy="36" r="18" fill="none" stroke="#3b82f6" stroke-width="2" opacity="0.4"/>
    <circle cx="36" cy="36" r="10" fill="none" stroke="#60a5fa" stroke-width="2" opacity="0.3"/>
    <circle cx="36" cy="36" r="4" fill="#3b82f6" opacity="0.5"/>
    <g stroke="#60a5fa" stroke-width="2" opacity="0.3">
      <line x1="36" y1="18" x2="36" y2="14"/>
      <line x1="36" y1="54" x2="36" y2="58"/>
      <line x1="18" y1="36" x2="14" y2="36"/>
      <line x1="54" y1="36" x2="58" y2="36"/>
      <line x1="23" y1="23" x2="20" y2="20"/>
      <line x1="49" y1="49" x2="52" y2="52"/>
      <line x1="23" y1="49" x2="20" y2="52"/>
      <line x1="49" y1="23" x2="52" y2="20"/>
    </g>
    <text x="75" y="30" font-family="system-ui,sans-serif" font-weight="700" font-size="13" fill="#1e293b">Timing Gear Set</text>
    <text x="75" y="48" font-family="system-ui,sans-serif" font-size="10" fill="#64748b">Crankshaft · Camshaft · Idler</text>
    <rect x="12" y="62" width="50" height="18" rx="9" fill="#22c55e" opacity="0.15"/>
    <text x="37" y="75" text-anchor="middle" font-family="system-ui,sans-serif" font-size="9" fill="#22c55e" font-weight="700">OEM + AFTERMARKET</text>
  </g>
  <!-- Row 3 -->
  <!-- Part 7: Injection Pump -->
  <g transform="translate(30, 300)" filter="url(#shadowPt)">
    <rect width="230" height="90" rx="8" fill="url(#cardGrad)"/>
    <rect x="12" y="12" width="48" height="48" rx="6" fill="#2563eb" opacity="0.1"/>
    <rect x="26" y="18" width="20" height="36" rx="3" fill="none" stroke="#3b82f6" stroke-width="2" opacity="0.5"/>
    <rect x="30" y="22" width="12" height="8" rx="1" fill="#3b82f6" opacity="0.3"/>
    <rect x="30" y="34" width="12" height="8" rx="1" fill="#3b82f6" opacity="0.3"/>
    <line x1="22" y1="36" x2="26" y2="36" stroke="#60a5fa" stroke-width="1.5" opacity="0.4"/>
    <line x1="50" y1="36" x2="54" y2="36" stroke="#60a5fa" stroke-width="1.5" opacity="0.4"/>
    <text x="75" y="30" font-family="system-ui,sans-serif" font-weight="700" font-size="13" fill="#1e293b">Injection Pump</text>
    <text x="75" y="48" font-family="system-ui,sans-serif" font-size="10" fill="#64748b">VRZ / governor type</text>
    <rect x="12" y="62" width="60" height="18" rx="9" fill="#f59e0b" opacity="0.15"/>
    <text x="42" y="75" text-anchor="middle" font-family="system-ui,sans-serif" font-size="9" fill="#f59e0b" font-weight="700">REBUILD KIT</text>
  </g>
  <!-- Part 8: Gasket Set -->
  <g transform="translate(285, 300)" filter="url(#shadowPt)">
    <rect width="230" height="90" rx="8" fill="url(#cardGrad)"/>
    <rect x="12" y="12" width="48" height="48" rx="6" fill="#2563eb" opacity="0.1"/>
    <rect x="18" y="28" width="36" height="16" rx="2" fill="none" stroke="#3b82f6" stroke-width="2" opacity="0.5"/>
    <line x1="18" y1="32" x2="54" y2="32" stroke="#60a5fa" stroke-width="1" opacity="0.4"/>
    <line x1="18" y1="36" x2="54" y2="36" stroke="#60a5fa" stroke-width="1" opacity="0.4"/>
    <line x1="18" y1="40" x2="54" y2="40" stroke="#60a5fa" stroke-width="1" opacity="0.4"/>
    <text x="75" y="30" font-family="system-ui,sans-serif" font-weight="700" font-size="13" fill="#1e293b">Gasket Set (full)</text>
    <text x="75" y="48" font-family="system-ui,sans-serif" font-size="10" fill="#64748b">All engine gaskets + crank seals</text>
    <rect x="12" y="62" width="50" height="18" rx="9" fill="#22c55e" opacity="0.15"/>
    <text x="37" y="75" text-anchor="middle" font-family="system-ui,sans-serif" font-size="9" fill="#22c55e" font-weight="700">OEM + AFTERMARKET</text>
  </g>
  <!-- Part 9: Starter -->
  <g transform="translate(540, 300)" filter="url(#shadowPt)">
    <rect width="230" height="90" rx="8" fill="url(#cardGrad)"/>
    <rect x="12" y="12" width="48" height="48" rx="6" fill="#2563eb" opacity="0.1"/>
    <rect x="26" y="18" width="20" height="36" rx="5" fill="none" stroke="#3b82f6" stroke-width="2" opacity="0.5"/>
    <circle cx="36" cy="50" r="6" fill="#3b82f6" opacity="0.3"/>
    <rect x="30" y="22" width="12" height="6" rx="1" fill="#3b82f6" opacity="0.3"/>
    <line x1="36" y1="18" x2="36" y2="14" stroke="#60a5fa" stroke-width="1.5" opacity="0.4"/>
    <text x="75" y="30" font-family="system-ui,sans-serif" font-weight="700" font-size="13" fill="#1e293b">Starter Motor</text>
    <text x="75" y="48" font-family="system-ui,sans-serif" font-size="10" fill="#64748b">12V · 2.0 kW</text>
    <rect x="12" y="62" width="35" height="18" rx="9" fill="#2563eb" opacity="0.15"/>
    <text x="29" y="75" text-anchor="middle" font-family="system-ui,sans-serif" font-size="9" fill="#2563eb" font-weight="700">OEM</text>
  </g>
  <!-- Bottom text -->
  <text x="400" y="475" text-anchor="middle" font-family="system-ui,sans-serif" font-size="12" fill="#64748b">SourceSage sources all V1505 parts — OEM and quality aftermarket. Most enquiries confirmed within 24 hours.</text>
</svg>
