<svg xmlns="http://www.w3.org/2000/svg" viewBox="0 0 800 500" width="800" height="500">
  <defs>
    <linearGradient id="tnvPartsBg" x1="0%" y1="0%" x2="0%" y2="100%">
      <stop offset="0%" style="stop-color:#0f172a"/>
      <stop offset="100%" style="stop-color:#1e293b"/>
    </linearGradient>
    <filter id="shadowTnvPt">
      <feDropShadow dx="0" dy="3" stdDeviation="5" flood-color="#000" flood-opacity="0.2"/>
    </filter>
  </defs>
  <rect width="800" height="500" fill="url(#tnvPartsBg)"/>
  <!-- Header -->
  <text x="400" y="45" text-anchor="middle" font-family="system-ui,sans-serif" font-weight="800" font-size="18" fill="#ef4444">YANMAR 3TNV88 — COMMON PARTS WE SOURCE</text>
  <line x1="200" y1="55" x2="600" y2="55" stroke="#ef4444" stroke-width="2" opacity="0.3"/>
  <!-- Parts grid — 2 rows of 3 -->
  <!-- Row 1 -->
  <g transform="translate(30, 80)">
    <rect width="230" height="95" rx="8" fill="#f8fafc" filter="url(#shadowTnvPt)"/>
    <rect x="12" y="12" width="48" height="48" rx="6" fill="#ef4444" opacity="0.08"/>
    <rect x="22" y="25" width="14" height="22" rx="2" fill="#ef4444" opacity="0.4"/>
    <rect x="20" y="22" width="18" height="6" rx="1" fill="#fca5a5" opacity="0.5"/>
    <rect x="22" y="40" width="6" height="2" fill="#fca5a5" opacity="0.3"/>
    <rect x="22" y="44" width="6" height="2" fill="#fca5a5" opacity="0.3"/>
    <rect x="30" y="40" width="6" height="2" fill="#fca5a5" opacity="0.3"/>
    <rect x="30" y="44" width="6" height="2" fill="#fca5a5" opacity="0.3"/>
    <text x="75" y="30" font-family="system-ui,sans-serif" font-weight="700" font-size="13" fill="#1e293b">Overhaul Kit (full)</text>
    <text x="75" y="48" font-family="system-ui,sans-serif" font-size="10" fill="#64748b">Pistons · Rings · Liners · Gaskets</text>
    <rect x="12" y="65" width="50" height="18" rx="9" fill="#22c55e" opacity="0.15"/>
    <text x="37" y="78" text-anchor="middle" font-family="system-ui,sans-serif" font-size="9" fill="#22c55e" font-weight="700">OEM + AFTERMARKET</text>
  </g>
  <g transform="translate(285, 80)">
    <rect width="230" height="95" rx="8" fill="#f8fafc" filter="url(#shadowTnvPt)"/>
    <rect x="12" y="12" width="48" height="48" rx="6" fill="#ef4444" opacity="0.08"/>
    <rect x="28" y="22" width="8" height="28" rx="2" fill="#ef4444" opacity="0.4"/>
    <rect x="24" y="18" width="16" height="8" rx="2" fill="#fca5a5" opacity="0.3"/>
    <rect x="38" y="22" width="8" height="28" rx="2" fill="#ef4444" opacity="0.4"/>
    <rect x="34" y="18" width="16" height="8" rx="2" fill="#fca5a5" opacity="0.3"/>
    <rect x="48" y="22" width="8" height="28" rx="2" fill="#ef4444" opacity="0.4"/>
    <rect x="44" y="18" width="16" height="8" rx="2" fill="#fca5a5" opacity="0.3"/>
    <text x="75" y="30" font-family="system-ui,sans-serif" font-weight="700" font-size="13" fill="#1e293b">Injector Nozzles (set of 3)</text>
    <text x="75" y="48" font-family="system-ui,sans-serif" font-size="10" fill="#64748b">OEM Denso · Specify 3TNV88</text>
    <rect x="12" y="65" width="35" height="18" rx="9" fill="#2563eb" opacity="0.15"/>
    <text x="29" y="78" text-anchor="middle" font-family="system-ui,sans-serif" font-size="9" fill="#2563eb" font-weight="700">OEM</text>
  </g>
  <g transform="translate(540, 80)">
    <rect width="230" height="95" rx="8" fill="#fef2f2" stroke="#fecaca" stroke-width="1" filter="url(#shadowTnvPt)"/>
    <rect x="12" y="12" width="48" height="48" rx="6" fill="#ef4444" opacity="0.12"/>
    <rect x="22" y="18" width="28" height="36" rx="4" fill="none" stroke="#ef4444" stroke-width="2" opacity="0.5"/>
    <line x1="28" y1="30" x2="44" y2="30" stroke="#fca5a5" stroke-width="2" opacity="0.5"/>
    <line x1="28" y1="38" x2="44" y2="38" stroke="#fca5a5" stroke-width="2" opacity="0.5"/>
    <line x1="36" y1="18" x2="36" y2="14" stroke="#ef4444" stroke-width="2" opacity="0.4"/>
    <text x="75" y="30" font-family="system-ui,sans-serif" font-weight="700" font-size="13" fill="#dc2626">Timing Belt Kit⚠</text>
    <text x="75" y="48" font-family="system-ui,sans-serif" font-size="10" fill="#64748b">Belt + Tensioner + Idler</text>
    <rect x="12" y="65" width="35" height="18" rx="9" fill="#ef4444" opacity="0.15"/>
    <text x="29" y="78" text-anchor="middle" font-family="system-ui,sans-serif" font-size="9" fill="#dc2626" font-weight="700">OEM ONLY</text>
  </g>
  <!-- Row 2 -->
  <g transform="translate(30, 195)">
    <rect width="230" height="95" rx="8" fill="#f8fafc" filter="url(#shadowTnvPt)"/>
    <rect x="12" y="12" width="48" height="48" rx="6" fill="#ef4444" opacity="0.08"/>
    <circle cx="36" cy="36" r="14" fill="none" stroke="#ef4444" stroke-width="2" opacity="0.4"/>
    <circle cx="36" cy="36" r="5" fill="#ef4444" opacity="0.4"/>
    <g stroke="#fca5a5" stroke-width="1.5" opacity="0.3">
      <line x1="36" y1="18" x2="36" y2="14"/>
      <line x1="36" y1="54" x2="36" y2="58"/>
      <line x1="18" y1="36" x2="14" y2="36"/>
      <line x1="54" y1="36" x2="58" y2="36"/>
    </g>
    <text x="75" y="30" font-family="system-ui,sans-serif" font-weight="700" font-size="13" fill="#1e293b">Water Pump</text>
    <text x="75" y="48" font-family="system-ui,sans-serif" font-size="10" fill="#64748b">With gasket · Confirm housing</text>
    <rect x="12" y="65" width="50" height="18" rx="9" fill="#22c55e" opacity="0.15"/>
    <text x="37" y="78" text-anchor="middle" font-family="system-ui,sans-serif" font-size="9" fill="#22c55e" font-weight="700">OEM + AFTERMARKET</text>
  </g>
  <g transform="translate(285, 195)">
    <rect width="230" height="95" rx="8" fill="#f8fafc" filter="url(#shadowTnvPt)"/>
    <rect x="12" y="12" width="48" height="48" rx="6" fill="#ef4444" opacity="0.08"/>
    <circle cx="36" cy="36" r="14" fill="none" stroke="#ef4444" stroke-width="3" opacity="0.4"/>
    <circle cx="36" cy="36" r="5" fill="#ef4444" opacity="0.5"/>
    <g stroke="#fca5a5" stroke-width="1.5" opacity="0.4">
      <line x1="36" y1="18" x2="36" y2="14"/>
      <line x1="36" y1="54" x2="36" y2="58"/>
      <line x1="18" y1="36" x2="14" y2="36"/>
      <line x1="54" y1="36" x2="58" y2="36"/>
    </g>
    <text x="75" y="30" font-family="system-ui,sans-serif" font-weight="700" font-size="13" fill="#1e293b">Injection Pump</text>
    <text x="75" y="48" font-family="system-ui,sans-serif" font-size="10" fill="#64748b">Zexel / Denso · Rebuild kits</text>
    <rect x="12" y="65" width="60" height="18" rx="9" fill="#f59e0b" opacity="0.15"/>
    <text x="42" y="78" text-anchor="middle" font-family="system-ui,sans-serif" font-size="9" fill="#f59e0b" font-weight="700">REBUILD KIT</text>
  </g>
  <g transform="translate(540, 195)">
    <rect width="230" height="95" rx="8" fill="#f8fafc" filter="url(#shadowTnvPt)"/>
    <rect x="12" y="12" width="48" height="48" rx="6" fill="#ef4444" opacity="0.08"/>
    <rect x="22" y="22" width="20" height="28" rx="3" fill="none" stroke="#ef4444" stroke-width="2" opacity="0.5"/>
    <circle cx="32" cy="48" r="6" fill="none" stroke="#fca5a5" stroke-width="1.5" opacity="0.4"/>
    <rect x="26" y="26" width="12" height="10" rx="1" fill="#ef4444" opacity="0.3"/>
    <text x="75" y="30" font-family="system-ui,sans-serif" font-weight="700" font-size="13" fill="#1e293b">Crankshaft Seal Kit</text>
    <text x="75" y="48" font-family="system-ui,sans-serif" font-size="10" fill="#64748b">Front + rear main seals</text>
    <rect x="12" y="65" width="50" height="18" rx="9" fill="#22c55e" opacity="0.15"/>
    <text x="37" y="78" text-anchor="middle" font-family="system-ui,sans-serif" font-size="9" fill="#22c55e" font-weight="700">OEM + AFTERMARKET</text>
  </g>
  <!-- Warning note -->
  <g transform="translate(140, 320)">
    <rect x="0" y="0" width="520" height="40" rx="6" fill="#fef2f2" stroke="#fecaca" stroke-width="1"/>
    <text x="260" y="16" text-anchor="middle" font-family="system-ui,sans-serif" font-weight="600" font-size="11" fill="#ef4444">⚠ Don't confuse 3TNV88 (bore 88mm) with 3TNV84 (bore 84mm) — parts are NOT interchangeable</text>
    <text x="260" y="32" text-anchor="middle" font-family="system-ui,sans-serif" font-size="10" fill="#64748b">Always confirm engine model from the engine plate before ordering internal parts</text>
  </g>
  <!-- Bottom text -->
  <text x="400" y="475" text-anchor="middle" font-family="system-ui,sans-serif" font-size="12" fill="#64748b">SourceSage sources all 3TNV88 parts — OEM Yanmar and quality aftermarket. Availability confirmed within 24 hours.</text>
</svg>
